<svg width="65" height="65" viewBox="0 0 65 65" fill="none" xmlns="http://www.w3.org/2000/svg">
<circle cx="32.5" cy="32.5" r="32.5" fill="#D00000"/>
<path d="M18.336 45.504C16.392 45.504 14.868 45.144 13.764 44.424C12.684 43.704 12.144 42.744 12.144 41.544C12.144 40.728 12.384 40.068 12.864 39.564C13.344 39.036 14.052 38.772 14.988 38.772C15.732 38.772 16.344 38.976 16.824 39.384C17.304 39.768 17.544 40.272 17.544 40.896C17.544 40.992 17.52 41.136 17.472 41.328C17.448 41.496 17.4 41.7 17.328 41.94C17.184 42.396 17.112 42.744 17.112 42.984C17.112 43.608 17.484 43.92 18.228 43.92C18.972 43.92 19.488 43.524 19.776 42.732C20.064 41.916 20.208 40.5 20.208 38.484V24.228C20.208 23.364 20.148 22.704 20.028 22.248C19.908 21.768 19.668 21.432 19.308 21.24C18.972 21.024 18.48 20.892 17.832 20.844L17.112 20.772V19.332L22.98 19.44H23.016L28.884 19.332V20.772L28.164 20.844C27.516 20.892 27.012 21.024 26.652 21.24C26.316 21.432 26.088 21.768 25.968 22.248C25.848 22.704 25.788 23.364 25.788 24.228L25.752 37.692C25.752 40.308 25.14 42.264 23.916 43.56C22.692 44.856 20.832 45.504 18.336 45.504ZM30.5175 45.108V43.632L31.2375 43.56C31.9095 43.488 32.4135 43.356 32.7495 43.164C33.0855 42.972 33.3135 42.648 33.4335 42.192C33.5535 41.736 33.6135 41.076 33.6135 40.212V24.228C33.6135 23.364 33.5535 22.704 33.4335 22.248C33.3135 21.768 33.0735 21.432 32.7135 21.24C32.3775 21.024 31.8855 20.892 31.2375 20.844L30.5175 20.772V19.332L36.2055 19.44H41.4615C45.3735 19.44 48.2415 20.004 50.0655 21.132C51.9135 22.236 52.8375 23.988 52.8375 26.388C52.8375 28.836 51.9255 30.72 50.1015 32.04C48.3015 33.36 45.7095 34.02 42.3255 34.02H37.8975V32.22H41.6055C43.4295 32.22 44.7375 31.812 45.5295 30.996C46.3215 30.18 46.7175 28.836 46.7175 26.964C46.7175 25.068 46.3335 23.64 45.5655 22.68C44.7975 21.72 43.6575 21.24 42.1455 21.24H39.1935V40.212C39.1935 41.076 39.2535 41.736 39.3735 42.192C39.4935 42.648 39.7215 42.972 40.0575 43.164C40.4175 43.356 40.9215 43.476 41.5695 43.524L43.0095 43.632V45.108L36.4215 45L30.5175 45.108Z" fill="white"/>
</svg>
